<svg width="330" height="106" viewBox="0 0 330 106" fill="none" xmlns="http://www.w3.org/2000/svg">
<path d="M49.0151 0.324982C22.0085 0.324982 0.113647 23.9094 0.113647 53C0.113647 82.0906 22.0085 105.675 49.0151 105.675C76.0216 105.675 97.9165 82.0906 97.9165 53C97.9165 23.9094 76.0216 0.324982 49.0151 0.324982ZM49.0151 97.561C26.1678 97.561 7.64643 77.6104 7.64643 53C7.64643 28.3896 26.1678 8.43905 49.0151 8.43905C71.8624 8.43905 90.3837 28.3896 90.3837 53C90.3837 77.6104 71.8624 97.561 49.0151 97.561Z" fill="#010101"/>
<path d="M327.934 87.0506C326.645 88.4431 325.09 89.1394 323.263 89.1394C321.436 89.1394 319.882 88.4431 318.601 87.0506C317.327 85.6629 316.687 83.9826 316.687 82.0094C316.687 80.0362 317.331 78.3854 318.617 76.9978C319.898 75.6175 321.447 74.9262 323.261 74.9262C325.074 74.9262 326.643 75.6151 327.931 76.9978C329.22 78.378 329.861 80.0485 329.861 82.0094C329.861 83.9703 329.217 85.6556 327.931 87.0506H327.934ZM319.259 77.694C318.158 78.8873 317.605 80.329 317.605 82.0193C317.605 83.7095 318.153 85.1733 319.25 86.374C320.351 87.5746 321.689 88.1725 323.265 88.1725C324.841 88.1725 326.177 87.5721 327.28 86.374C328.381 85.1733 328.934 83.7242 328.934 82.0193C328.934 80.3143 328.384 78.8873 327.28 77.694C326.173 76.4934 324.834 75.8956 323.265 75.8956C321.696 75.8956 320.367 76.4959 319.259 77.694ZM323.139 78.0902C324.037 78.0902 324.697 78.1836 325.115 78.3706C325.864 78.7052 326.239 79.3646 326.239 80.3462C326.239 81.0425 326.004 81.5567 325.533 81.8864C325.282 82.0611 324.935 82.1866 324.487 82.2628C325.053 82.3588 325.467 82.6146 325.73 83.0255C325.992 83.4388 326.122 83.8399 326.122 84.2335V84.8043C326.122 84.9839 326.129 85.1783 326.141 85.3849C326.152 85.5916 326.173 85.7269 326.205 85.7909L326.25 85.8868H325.056C325.049 85.8622 325.044 85.8352 325.037 85.8106C325.031 85.786 325.026 85.7565 325.019 85.7245L324.992 85.4735V84.856C324.992 83.9555 324.763 83.3601 324.309 83.0723C324.039 82.905 323.567 82.8213 322.89 82.8213H321.886V85.8893H320.611V78.0926H323.144L323.139 78.0902ZM324.517 79.3178C324.195 79.1235 323.681 79.0275 322.973 79.0275H321.883V81.8519H323.037C323.578 81.8519 323.982 81.7929 324.252 81.6773C324.75 81.4632 324.999 81.0573 324.999 80.4594C324.999 79.8911 324.839 79.5122 324.517 79.3178Z" fill="#010101"/>
<path d="M200.434 28.3552H195.317C195.317 28.3552 195.324 51.423 195.329 62.081C195.329 63.3406 195.253 64.588 194.975 65.8157C194.6 67.4715 193.76 68.7705 192.248 69.3438C188.579 70.7338 184.872 70.7338 181.202 69.3512C179.69 68.7828 178.843 67.4838 178.441 65.8428C178.114 64.5093 178.05 63.1438 178.05 61.7685C178.052 51.4131 178.071 28.3552 178.071 28.3552H172.938C172.938 28.3552 172.941 51.1843 172.934 61.5471C172.934 62.7453 172.902 63.9434 172.71 65.1293C172.31 67.6068 170.983 69.1937 168.713 69.7793C165.755 70.5419 162.774 70.5296 159.816 69.7793C157.788 69.265 156.452 67.9193 155.97 65.6952C155.849 65.1416 155.787 64.5708 155.746 64.0025C155.691 63.2644 155.664 62.5214 155.664 61.7808C155.66 50.9358 155.673 28.3527 155.673 28.3527H150.507C150.507 28.3527 150.52 51.4426 150.532 61.9383C150.532 63.1635 150.571 64.3961 150.689 65.6115C151.082 69.6119 152.912 72.4216 156.575 73.6813C159.316 74.6236 162.144 74.8302 164.976 74.7294C169.113 74.5818 172.899 73.4697 175.499 69.4545C177.063 71.9296 179.169 73.3762 181.72 74.0725C185.768 75.1772 189.824 74.941 193.826 73.8683C196.485 73.1548 198.604 71.5605 199.637 68.6623C200.281 66.8515 200.431 64.9472 200.434 63.0282C200.441 53.839 200.434 28.3527 200.434 28.3527V28.3552Z" fill="#010101"/>
<path d="M241.773 40.1991C241.773 38.8238 241.674 37.4657 241.462 36.1125C241.028 33.3373 239.689 31.2756 237.346 29.9913C235.183 28.8054 232.849 28.3527 230.464 28.1165C225.855 27.6589 221.262 27.6958 216.705 28.6947C211.593 29.8141 209.099 32.7739 208.96 38.3563C208.818 44.0863 208.894 55.5612 208.875 55.5612C208.875 61.0255 208.882 66.4923 208.864 71.9566H208.862V74.3037H214.042V72.2026C214.015 67.4469 214.008 58.1396 214.008 58.1396V57.2612H236.659L236.663 58.2454C236.663 58.2454 236.649 67.3878 236.636 71.9591V74.3062H241.786C241.786 74.3062 241.766 50.8718 241.773 40.2065V40.1991ZM236.661 52.4735H214.012V51.6788C214.012 51.6788 214.04 43.5229 214.049 39.4462C214.049 38.6466 214.126 37.8569 214.3 37.0745C214.887 34.4174 216.721 33.325 218.969 32.8206C222.794 31.9644 226.652 32.0825 230.508 32.5598C231.238 32.6509 231.956 32.892 232.668 33.1085C235.224 33.8859 236.416 35.8247 236.574 38.5777C236.647 39.8276 236.643 41.0848 236.645 42.3395C236.654 45.4469 236.663 51.6641 236.663 51.6641V52.4735H236.661Z" fill="#010101"/>
<path d="M276.058 50.6037C272.26 49.5334 268.343 49.1595 264.492 48.3992C262.592 48.0253 260.671 47.7596 258.78 47.3413C256.228 46.7754 254.979 45.0704 254.949 42.2608C254.938 41.2348 254.938 40.2064 254.974 39.178C255.091 35.6918 256.317 33.758 259.451 33.0273C264.264 31.9029 269.129 31.8094 273.918 33.3053C276.122 33.9942 277.203 35.7434 277.468 38.1521C277.616 39.5077 277.587 41.9065 277.587 41.9065H282.705V40.5287C282.694 39.6553 282.716 38.836 282.646 37.9676C282.228 32.8428 280.318 30.3825 275.727 28.985C272.635 28.0427 269.453 28.0033 266.265 27.9099C262.994 28.0009 259.714 28.0796 256.518 29.0687C252.766 30.2324 250.434 32.6976 249.998 37.0253C249.806 38.9369 249.856 40.8436 249.851 42.7553C249.844 47.0584 252.046 50.3035 255.854 51.6198C258.643 52.5842 261.568 52.7958 264.43 53.3493C267.192 53.8832 269.978 54.2597 272.735 54.8157C275.072 55.2856 276.954 56.4912 277.429 59.2418C277.769 61.2149 277.671 63.2275 277.374 65.208C277.052 67.346 275.889 68.832 273.964 69.4126C268.987 70.911 263.962 70.847 258.965 69.5504C256.592 68.9353 255.342 67.1492 255.066 64.5339C254.993 63.8376 254.965 63.1389 254.956 62.4402H254.961V60.0758V58.7694H249.838V61.8325C249.828 63.5104 249.854 65.1859 250.178 66.8441C250.678 69.4176 251.946 71.3833 254.148 72.611C255.381 73.2999 256.681 73.76 258.037 74.0577C261.804 74.8819 265.618 74.936 269.432 74.7318C271.783 74.6063 274.128 74.3259 276.394 73.5312C279.647 72.3921 281.837 70.2491 282.442 66.4627C282.792 64.2755 282.71 62.0834 282.712 59.8888C282.716 55.1011 280.384 51.8215 276.065 50.6037H276.058Z" fill="#010101"/>
<path d="M142.213 37.9356C142.035 34.7003 141.005 31.9275 138.221 30.2373C137.013 29.5017 135.715 29.0121 134.363 28.6996C130.871 27.8926 127.326 27.7426 123.774 27.8779C121.024 27.9812 118.272 28.1928 115.622 29.1007C113.163 29.9421 111.082 31.3149 109.999 33.9868C109.264 35.8 109.118 37.7412 109.113 39.6824C109.095 47.4151 109.104 55.1478 109.106 62.8806C109.106 63.2521 109.108 63.6236 109.134 63.9926C109.3 66.5292 109.659 68.9969 111.422 70.9208C112.973 72.6135 114.944 73.4451 117.039 73.9027C122.255 75.0443 127.511 74.9754 132.767 74.2349C134.29 74.0208 135.772 73.5829 137.198 72.9334C140.573 71.3957 142.015 68.4802 142.216 64.7209C142.455 60.2456 142.245 55.7629 142.332 51.2852C142.245 46.8345 142.458 42.3814 142.216 37.9356H142.213ZM137.156 62.2827C137.156 62.6813 137.15 63.0823 137.131 63.4809C136.976 66.9056 135.855 68.7435 132.764 69.5455C127.918 70.8027 123.002 70.815 118.153 69.4053C115.787 68.7164 114.579 66.8958 114.353 64.3051C114.273 63.3972 114.218 62.4845 114.216 61.5741C114.204 54.6705 114.202 47.7694 114.216 40.8658C114.216 39.8989 114.284 38.9271 114.389 37.9676C114.707 35.0275 116.449 33.48 118.969 32.9117C123.452 31.9029 127.968 31.8882 132.449 32.9215C135.542 33.635 137.035 35.5688 137.109 39.0107C137.195 43.117 137.159 58.6341 137.156 62.2852V62.2827Z" fill="#010101"/>
<path d="M323.566 37.8691C323.263 34.5674 321.757 31.957 318.976 30.3136C316.506 28.8571 313.807 28.4511 311.068 28.4216C304.894 28.3552 290.93 28.3552 290.93 28.3552L290.923 74.2963H296.078L296.051 61.0525C296.051 61.0525 305.65 61.0821 310.075 61.0624C312.037 61.0526 313.983 60.8803 315.908 60.4178C320.312 59.3623 323.201 56.0926 323.594 51.2852C323.957 46.8246 323.978 42.3297 323.566 37.8716V37.8691ZM318.359 51.0342C317.952 53.7799 316.317 55.4529 313.864 56.2304C312.605 56.6289 311.313 56.72 310.013 56.7224C305.616 56.7298 296.051 56.7421 296.051 56.7421V32.7739C296.051 32.7739 306.064 32.7886 310.726 32.7886C312.089 32.7886 313.421 33.0076 314.691 33.5513C316.945 34.5207 318.224 36.3954 318.462 38.9246C318.838 42.9546 318.953 47.0116 318.359 51.0318V51.0342Z" fill="#010101"/>
<path d="M78.4084 33.1478C77.4606 32.5008 76.4807 31.9226 75.4095 31.5314C74.8271 31.3198 74.2606 31.3469 73.6828 31.5462C72.7417 31.8734 71.8418 32.2966 70.9556 32.7616C70.8163 32.7886 70.7752 32.6484 70.6884 32.5844C69.9118 31.1624 68.8634 30.0282 67.5501 29.1843C67.3103 29.0293 67.3011 28.9112 67.4131 28.6602C67.8333 27.7229 68.2193 26.7683 68.4957 25.7669C68.6464 25.2183 68.651 24.6795 68.4888 24.1308C68.1417 22.9523 67.5866 21.8821 66.9791 20.8439C66.8717 20.6594 66.7233 20.5511 66.5246 20.6815C66.3327 20.8094 66.3441 20.9989 66.4492 21.1908C66.4857 21.2572 66.5268 21.3236 66.5634 21.3901C67.0704 22.2905 67.5455 23.2058 67.8607 24.2096C68.0183 24.709 68.0229 25.1937 67.8722 25.6956C67.5935 26.6231 67.228 27.5137 66.8466 28.3945C66.8238 28.4462 66.8101 28.5052 66.7438 28.5225C66.6639 28.4314 66.673 28.3084 66.6456 28.1977C66.4081 27.2776 65.6429 26.6207 64.759 26.5862C63.8682 26.5518 63.1693 27.0955 62.8678 28.0599C62.8358 28.1633 62.813 28.2617 62.6988 28.3035C61.7463 28.6529 61.0885 29.3491 60.6568 30.3136C60.5129 30.4538 60.4924 30.6556 60.4444 30.8401C60.1589 31.9275 60.2777 32.9953 60.5838 34.0532C60.6614 34.3189 60.7505 34.5773 60.8373 34.8454C60.7071 34.8897 60.6203 34.8233 60.5289 34.7938C59.476 34.4641 58.4139 34.3854 57.3518 34.6978C57.0549 34.7864 56.8174 34.8184 56.6232 34.5256C56.0522 33.5907 55.4835 32.6533 54.9056 31.7233C54.8005 31.556 54.7868 31.3961 54.812 31.2017C54.9878 29.8117 55.1317 28.4191 55.1295 27.0143C55.1295 26.7904 55.1295 26.5665 55.0746 26.3476C55.0564 26.2836 55.0427 26.2024 54.9719 26.1901C54.8805 26.1729 54.8439 26.259 54.8234 26.3303C54.7549 26.5518 54.6818 26.7732 54.6361 26.9995C54.346 28.4388 54.1907 29.8978 54.0171 31.3567C53.9737 31.7209 54.0217 32.0407 54.1473 32.3753C54.4716 33.2315 54.7754 34.0975 55.0861 34.9586C55.1157 35.0447 55.1797 35.1284 55.134 35.244C55.0975 35.2342 55.0632 35.2292 55.0335 35.2145C54.3826 34.8528 53.7362 34.4838 53.083 34.127C52.8842 34.0188 52.7723 33.8638 52.7084 33.6276C52.3269 32.2252 51.9409 30.8253 51.475 29.4549C51.3425 29.0613 51.2077 28.6676 51.0159 28.3035C50.9679 28.2149 50.9291 28.0747 50.8126 28.1018C50.687 28.1313 50.7235 28.2789 50.7281 28.3748C50.7441 28.6356 50.7646 28.8989 50.8058 29.1572C51.0342 30.6088 51.3859 32.0284 51.6965 33.4603C51.8404 34.1221 52.014 34.7347 52.5942 35.1062C52.6079 35.1161 52.617 35.1358 52.6284 35.1505C52.6101 35.2342 52.8545 35.3301 52.6147 35.4015C52.0391 35.1997 51.4658 34.9906 50.888 34.7962C50.7258 34.7421 50.6048 34.6462 50.4951 34.5084C49.714 33.5218 48.9123 32.5574 48.0261 31.679C47.8456 31.5019 47.6629 31.3272 47.4482 31.1993C47.3865 31.1624 47.318 31.1058 47.2495 31.1698C47.181 31.2337 47.2221 31.3149 47.2495 31.3863C47.3477 31.6397 47.4893 31.866 47.6355 32.0874C48.3755 33.2192 49.2092 34.2722 50.0383 35.3252C50.1228 35.4334 50.2302 35.4974 50.3467 35.5565C51.5458 36.174 52.7449 36.7915 53.9395 37.414C54.0514 37.473 54.2661 37.4927 54.1473 37.7264C54.0468 37.9233 54.1153 38.2776 53.7042 38.1816C52.7769 37.9651 51.8427 37.7904 50.9085 37.6034C46.4912 36.7202 42.0579 35.9526 37.6017 35.3375C32.6727 34.6585 27.7232 34.3362 22.7531 34.3534C20.348 34.3608 17.9452 34.4272 15.5584 34.7938C15.1381 34.8577 14.7178 34.9414 14.3204 35.1038C14.0326 35.2219 13.9709 35.4015 14.0943 35.7016C14.1834 35.9181 14.3227 36.0977 14.4711 36.27C14.8914 36.7571 15.3734 37.168 15.8667 37.5641C17.4838 38.8533 19.2014 39.9678 20.9578 41.0159C23.6507 42.6274 26.3756 44.1306 29.4613 44.7186C31.4051 45.0877 33.3374 45.4838 35.3222 45.4247C36.2107 45.3977 37.0901 45.2992 37.9078 44.8662C38.6341 44.4849 39.2942 43.9879 39.9771 43.5328C40.9752 42.8709 42.0305 42.3715 43.2113 42.2829C45.1322 42.1378 47.0462 41.9237 48.9625 41.722C50.518 41.5596 52.0734 41.3825 53.6288 41.2127C53.759 41.1979 53.8755 41.1758 53.9143 41.3726C54.0765 42.2017 54.3986 42.9595 54.7937 43.6878C54.7937 43.7788 54.8439 43.8477 54.8851 43.919C54.9764 44.0789 54.8417 44.0273 54.7823 44.047C53.5192 43.2744 52.215 43.3039 50.888 43.8231C49.8944 44.2143 48.9968 44.7949 48.1426 45.4518C46.2879 46.8763 44.6571 48.5739 43.0149 50.2617C41.0803 52.2496 39.2805 54.3556 37.7593 56.7347C34.5776 61.7144 32.0149 67.0532 29.724 72.5545L29.201 73.8043L30.1557 73.3516C33.4676 71.7745 36.7041 70.0425 39.8515 68.1112C42.4918 66.4898 45.0774 64.7701 47.4162 62.6665C49.9401 60.3956 52.167 57.7976 54.3118 55.1183C55.2802 53.9054 56.1596 52.6186 56.7877 51.1572C57.514 49.4621 57.7218 47.7669 56.7443 46.0866L56.8516 46.0275C57.5939 46.5392 58.3682 46.9723 59.2362 47.174C59.4714 47.2281 59.5057 47.3364 59.4828 47.575C59.1608 50.8866 58.8387 54.1982 58.5738 57.5146C58.5053 58.3757 58.487 59.2442 58.2495 60.0832C57.9388 61.1903 57.3975 62.1695 56.7922 63.1044C55.9083 64.4674 55.536 65.9658 55.5566 67.6166C55.584 69.7226 55.8786 71.7844 56.3012 73.8313C56.557 75.0763 56.7968 76.3261 57.2696 77.5046C58.6309 80.8924 60.3028 84.0957 62.2054 87.1612C62.7193 87.9879 63.2607 88.79 63.9093 89.5035C64.1172 89.7323 64.3342 89.9586 64.6151 90.0865C64.88 90.2096 65.0491 90.1333 65.1519 89.843C65.2158 89.6609 65.266 89.4739 65.3049 89.2845C65.5378 88.17 65.6315 87.0333 65.6955 85.8967C66.0289 80.1297 65.8188 74.3751 65.3369 68.6278C65.0376 65.0678 64.5466 61.5348 64.0372 58.0042C63.5256 54.4639 62.9432 50.9383 62.3014 47.4225C62.2237 46.9993 62.5252 47.0657 62.7011 46.9575C62.9295 46.8173 62.9523 47.0436 63.014 47.1765C63.5873 48.4558 64.156 49.7376 64.727 51.0194C64.7818 51.1425 64.8321 51.2655 64.9326 51.3565C65.9604 52.2939 66.9814 53.2411 68.096 54.0604C68.2376 54.1637 68.3861 54.2572 68.5391 54.3409C68.6213 54.3851 68.7287 54.4786 68.8086 54.3679C68.8817 54.267 68.7972 54.1613 68.7401 54.0801C68.5871 53.8636 68.4317 53.647 68.2604 53.4478C67.63 52.7097 66.9631 52.0036 66.2345 51.3811C65.7046 50.9309 65.346 50.4068 65.2158 49.6983C65.2044 49.4104 65.0628 49.1619 65.0057 48.8888C64.9646 48.6945 64.8298 48.5222 64.8846 48.3057C65.097 48.5567 65.3163 48.8027 65.5173 49.0635C65.6498 49.2382 65.8051 49.3366 66.0084 49.3932C67.2509 49.7401 68.4934 50.0821 69.7519 50.3626C70.3184 50.488 70.8825 50.6283 71.465 50.6406C71.5426 50.6406 71.6477 50.6602 71.6751 50.5569C71.7025 50.4536 71.6043 50.4093 71.538 50.365C71.3165 50.2125 71.0721 50.1067 70.8277 50.0033C69.4116 49.4104 67.9521 48.9553 66.4972 48.4903C66.3099 48.4312 66.1797 48.3254 66.0929 48.1409C65.7503 47.4225 65.4031 46.7065 65.0582 45.9881C65.0445 45.9586 65.0445 45.9193 65.0354 45.8799C65.1564 45.8504 65.2409 45.9217 65.3277 45.9586C66.2048 46.3227 67.0796 46.6893 67.9544 47.0608C68.0937 47.1199 68.2285 47.1469 68.3769 47.1273C69.8022 46.9403 71.232 46.7631 72.639 46.4433C72.8696 46.3916 73.098 46.3277 73.3127 46.2243C73.3767 46.1923 73.4589 46.1604 73.4406 46.0619C73.4269 45.9881 73.3539 45.9709 73.2922 45.9537C73.0341 45.8897 72.7714 45.8922 72.5088 45.8971C71.2503 45.9119 70.0009 46.057 68.7561 46.2391C68.5962 46.2612 68.4637 46.2514 68.3221 46.1505C67.4016 45.4961 66.4789 44.8466 65.5516 44.2044C65.3871 44.0912 65.3414 43.9904 65.4054 43.7813C65.7023 42.807 65.7183 41.813 65.5561 40.8092C65.4922 40.4205 65.3666 40.0465 65.2798 39.6627C65.4031 39.6184 65.4762 39.6922 65.5561 39.7267C66.4652 40.1228 67.4016 40.354 68.3883 40.2483C69.7131 40.1056 70.7455 39.456 71.3256 38.1275C71.4741 37.7904 71.6363 37.5838 71.972 37.4435C72.7303 37.1212 73.1529 36.2724 73.0729 35.3916C72.9884 34.4764 72.3489 33.694 71.5106 33.4726C71.4307 33.4504 71.3279 33.4849 71.2708 33.3594C71.3279 33.325 71.3782 33.2856 71.433 33.2585C72.1365 32.9018 72.8582 32.5918 73.58 32.2794C74.3177 31.9595 75.0166 32.021 75.7316 32.3556C76.547 32.737 77.3235 33.1921 78.075 33.6989C78.2509 33.817 78.4244 33.8441 78.5501 33.6399C78.6734 33.4406 78.6003 33.2659 78.4221 33.1454L78.4084 33.1478Z" fill="#010101"/>
</svg>