<svg width="90" height="90" viewBox="0 0 104 104" fill="none" xmlns="http://www.w3.org/2000/svg">
<path d="M51.0002 89.7263C22.8336 89.7263 0 69.6401 0 44.863C0 20.0861 22.8336 -6.10352e-05 51.0002 -6.10352e-05C79.166 -6.10352e-05 102 20.0861 102 44.863C102 69.6401 79.166 89.7263 51.0002 89.7263ZM50.9998 6.9044C27.1685 6.9044 7.84868 23.8993 7.84868 44.8627C7.84868 65.8265 27.1685 82.8214 50.9998 82.8214C74.8307 82.8214 94.1505 65.8265 94.1505 44.8627C94.1505 23.8993 74.8307 6.9044 50.9998 6.9044Z" fill="#ffffff"/>
<path d="M67.5632 76.6536C65.9322 76.6526 59.9888 67.3477 59.1899 64.6948C57.52 59.1404 57.8793 56.7938 57.9792 56.0436C58.285 53.7529 60.8115 52.6083 60.9644 49.5106C61.0118 48.5539 61.561 43.7714 61.9994 40.0355C60.9176 39.8493 59.84 39.4202 58.8821 38.7545C61.7581 42.1477 57.5252 46.2143 51.3746 51.6252C44.8465 57.3676 30.3566 62.6974 30.3566 62.6974C30.3566 62.6974 36.4159 49.9511 42.9437 44.2087C47.7424 39.9879 51.6101 36.7937 54.9107 36.7937C55.8412 36.7937 56.7269 37.0476 57.5751 37.6035C56.8179 36.7612 56.3306 35.8138 56.1184 34.8622C51.8714 35.2488 46.4341 35.731 45.3473 35.7731C41.8254 35.9076 40.5239 38.1301 37.9215 38.3986C37.6219 38.4297 37.0983 38.4892 36.2717 38.4892C34.7444 38.4892 32.1824 38.287 28.0864 37.3331C24.8063 36.57 12.5841 30.4538 14.7458 29.6852C15.8482 29.2927 19.3615 29.0273 23.9883 29.0273C28.4381 29.0273 33.9178 29.2726 39.2705 29.8861C45.9445 30.651 52.0644 31.6186 56.2349 32.3382C56.3025 32.141 56.3836 31.9493 56.4809 31.7631L52.2173 29.9657C52.2173 29.9657 48.8119 26.5281 49.1755 26.2911C49.1895 26.2819 49.2074 26.2774 49.2287 26.2774C49.7628 26.2774 52.4872 29.0173 52.7493 29.3293C52.9511 29.3883 54.1062 29.7273 55.3211 30.0828L54.115 29.155C54.115 29.155 52.4643 23.7772 52.8944 23.6504C52.8996 23.6491 52.9053 23.6482 52.9116 23.6482C53.3646 23.6482 54.8624 28.3246 54.9908 28.6604C55.2852 28.8874 56.2796 29.2282 57.5221 29.8586L56.2156 26.9023C56.2156 26.9023 56.8069 22.025 57.2495 22.025C57.2532 22.025 57.2563 22.0254 57.2599 22.0259C57.7056 22.1041 57.1726 26.0939 57.0597 26.5907C57.2215 26.809 58.2236 28.1613 59.2284 29.5173C59.8468 29.3124 60.512 29.2113 61.1948 29.2113C61.9786 29.2113 62.7847 29.3448 63.5669 29.6079C62.5652 27.7317 62.6412 25.7764 63.9694 24.6089C64.3897 24.2383 64.9004 23.9798 65.4693 23.8266C65.538 23.4853 65.7179 23.1614 66.0128 22.9015C66.3972 22.5639 66.9032 22.396 67.4155 22.396C67.9517 22.396 68.4952 22.5804 68.9112 22.9468C69.3101 23.2968 69.5171 23.7493 69.5348 24.1999C70.176 23.0374 70.9327 21.4687 70.8797 20.9604C70.7564 19.8103 69.2399 17.7744 69.2259 17.7538C69.127 17.6225 69.1681 17.445 69.3184 17.3577C69.373 17.3261 69.4349 17.311 69.4963 17.311C69.6019 17.311 69.7054 17.3563 69.7673 17.44C69.8343 17.5278 71.3883 19.6149 71.5267 20.9073C71.6036 21.6466 70.6389 23.5095 70.1131 24.4611C70.8516 24.8166 71.5714 25.286 72.2288 25.8643C72.8856 26.4421 73.4192 27.0752 73.8239 27.7253C74.8645 27.2802 76.8611 26.4782 77.7613 26.4782C77.7972 26.4782 77.8316 26.4791 77.8638 26.4819C79.3325 26.6036 81.7056 27.9705 81.8049 28.0286C81.9547 28.1151 81.9963 28.2926 81.8975 28.4244C81.8351 28.5076 81.7316 28.5529 81.626 28.5529C81.5652 28.5529 81.5033 28.5378 81.4487 28.5058C81.4253 28.4925 79.1115 27.159 77.8035 27.0514C77.7837 27.0496 77.7624 27.0492 77.74 27.0492C77.104 27.0492 75.396 27.6883 74.1198 28.2336C74.6331 28.2487 75.1474 28.4317 75.5448 28.7826C76.3597 29.4986 76.3821 30.6395 75.5963 31.3308C75.3014 31.5907 74.9337 31.7503 74.5457 31.8098C74.3705 32.3108 74.0761 32.76 73.6559 33.1297C72.9236 33.7743 71.9199 34.0831 70.8079 34.0831C69.904 34.0831 68.9289 33.8786 67.9725 33.4838C68.5326 34.7702 68.5752 36.1322 68.076 37.2997C69.6164 38.1836 71.1559 39.0656 71.4024 39.2079C71.807 39.137 74.2368 38.8776 75.6238 38.8776C76.1782 38.8776 76.5667 38.9188 76.5917 39.0304C76.6817 39.422 71.0492 39.9509 71.0492 39.9509L67.688 38.8003C68.4052 39.8941 68.7911 40.7684 69.0496 41.0278C69.438 41.1422 74.8879 42.4936 74.7444 42.8719C74.7283 42.9159 74.6326 42.9346 74.476 42.9346C73.2747 42.9346 68.4879 41.7978 68.4879 41.7978L67.4321 40.7368C67.8372 41.806 68.2216 42.8212 68.2897 42.9991C68.659 43.2393 72.0119 45.8219 71.743 46.1425C71.729 46.1591 71.7061 46.1664 71.6744 46.1664C71.0862 46.1664 67.5663 43.4676 67.5663 43.4676L65.5224 39.7166C65.3112 39.8026 65.0928 39.8731 64.8681 39.933C65.6862 43.6016 66.7867 48.985 67.6573 54.8555C69.0792 64.4605 68.7593 74.5262 67.8856 76.4295C67.8154 76.5826 67.7057 76.6536 67.5632 76.6536Z" fill="#ffffff"/>
</svg>